:FULLY-SPECIFIED
:FORCE-ALL-JOINTS-BE-3DOF
:DEGREES
2650
root -1.48281 15.2617 -28.6428 -168.9 -63.0997 162.553
lfemur -52.9167 24.8543 -11.0389
ltibia 59.9037 -0 0
lfoot 8.04877 9.81011 0.0494186
ltoes -23.2664 0 0
rfemur -34.6685 -16.3087 24.0129
rtibia 67.7876 -0 0
rfoot -23.6153 -5.14528 0.0481796
rtoes -5.88254 0 0
lowerback 19.0411 4.57122 -0.243968
upperback -0.0857262 5.99953 0.588433
thorax -10.8744 2.82557 -0.874694
lowerneck -2.42273 9.75113 -0.347329
upperneck 4.70668 12.9875 0.720938
head 1.7936 6.48169 0.564637
lclavicle -2.75946e-014 -3.18055e-015 0
lhumerus 65.4223 -33.4779 40.101
lradius 108.102 -0 0
lwrist -31.3728 0 0
lhand -37.9284 27.2289 -0.0798038
lfingers 7.12502 -0 0
lthumb -10.9702 56.9294 -0.0773927
rclavicle -2.75946e-014 -3.18055e-015 0
rhumerus 1.27407 76.6869 -75.1641
rradius 102.11 -0 0
rwrist -37.1158 0 0
rhand 1.85001 -31.866 0.0230106
rfingers 7.12502 -0 0
rthumb 27.3691 -60.005 0.00159523
2651
root -1.60798 15.2469 -28.6148 -154.093 -64.1525 145.798
lfemur -52.409 25.2309 -10.7124
ltibia 58.6804 -0 0
lfoot 8.83726 9.80866 0.0586231
ltoes -21.6363 0 0
rfemur -34.2952 -16.2548 23.7091
rtibia 67.9663 -0 0
rfoot -23.8479 -5.38981 0.0592967
rtoes -6.05499 0 0
lowerback 18.9237 4.67952 -0.0634883
upperback -0.116341 6.18238 0.552438
thorax -10.8187 2.90305 -1.05214
lowerneck -2.40767 9.87047 -0.157709
upperneck 4.88259 13.1414 0.638529
head 1.86602 6.559 0.520612
lclavicle -2.75946e-014 -3.18055e-015 0
lhumerus 61.4078 -32.7742 43.0091
lradius 108.01 -0 0
lwrist -31.9676 0 0
lhand -38.2011 27.025 -0.0973633
lfingers 7.12502 -0 0
lthumb -11.2333 56.7125 -0.09435
rclavicle -2.75946e-014 -3.18055e-015 0
rhumerus -3.09975 76.5079 -78.5701
rradius 103.041 -0 0
rwrist -39.968 0 0
rhand 2.04982 -31.4453 0.0199651
rfingers 7.12502 -0 0
rthumb 27.5617 -59.575 -0.00533362
2652
root -1.73314 15.2321 -28.5867 -132.523 -64.5463 121.919
lfemur -51.7589 25.6245 -10.3271
ltibia 57.459 -0 0
lfoot 9.64274 9.83849 0.0637458
ltoes -19.8053 0 0
rfemur -33.9204 -16.2382 23.3788
rtibia 68.1634 -0 0
rfoot -24.0739 -5.69071 0.0678218
rtoes -6.2384 0 0
lowerback 18.7873 4.78258 0.124958
upperback -0.152262 6.36061 0.523059
thorax -10.7555 2.97876 -1.22372
lowerneck -2.3962 9.97543 0.0403688
upperneck 5.07236 13.2754 0.563687
head 1.94507 6.62669 0.478301
lclavicle -2.75946e-014 -3.18055e-015 0
lhumerus 57.105 -31.9047 46.1084
lradius 107.97 -0 0
lwrist -32.3266 0 0
lhand -38.4634 26.8767 -0.110421
lfingers 7.12502 -0 0
lthumb -11.4862 56.5509 -0.106924
rclavicle -2.75946e-014 -3.18055e-015 0
rhumerus -7.69072 76.0834 -82.0537
rradius 103.996 -0 0
rwrist -42.9009 0 0
rhand 2.16038 -30.9683 0.0130814
rfingers 7.12502 -0 0
rthumb 27.6683 -59.0952 -0.0146177
2653
root -1.85831 15.2173 -28.5587 -107.401 -61.1258 94.1628
lfemur -50.9852 26.0308 -9.88851
ltibia 56.2472 -0 0
lfoot 10.4572 9.89405 0.0646905
ltoes -17.808 0 0
rfemur -33.5458 -16.2546 23.0264
rtibia 68.3774 -0 0
rfoot -24.2939 -6.04204 0.0737776
rtoes -6.43177 0 0
lowerback 18.6343 4.88072 0.319389
upperback -0.193061 6.53401 0.49989
thorax -10.6865 3.05264 -1.38898
lowerneck -2.38808 10.067 0.245079
upperneck 5.27361 13.3909 0.496119
head 2.02966 6.68545 0.437764
lclavicle -2.75946e-014 -3.18055e-015 0
lhumerus 52.598 -30.8319 49.3269
lradius 107.974 -0 0
lwrist -32.4725 0 0
lhand -38.7153 26.7789 -0.119109
lfingers 7.12502 -0 0
lthumb -11.7291 56.4397 -0.11525
rclavicle -2.75946e-014 -3.18055e-015 0
rhumerus -12.2561 75.4279 -85.3907
rradius 104.968 -0 0
rwrist -45.8942 0 0
rhand 2.19151 -30.4439 0.00358631
rfingers 7.12502 -0 0
rthumb 27.6985 -58.5738 -0.0251895
2654
root -1.98347 15.2024 -28.5306 -86.8779 -52.29 70.6547
lfemur -50.1067 26.4454 -9.40259
ltibia 55.0528 -0 0
lfoot 11.2727 9.96978 0.0615165
ltoes -15.6791 0 0
rfemur -33.1733 -16.2999 22.6561
rtibia 68.6071 -0 0
rfoot -24.5088 -6.43788 0.0772409
rtoes -6.6341 0 0
lowerback 18.4676 4.97424 0.517837
upperback -0.238315 6.70235 0.482527
thorax -10.6129 3.12462 -1.54746
lowerneck -2.38308 10.1462 0.454597
upperneck 5.48394 13.4895 0.435518
head 2.11868 6.73597 0.399058
lclavicle -2.75946e-014 -3.18055e-015 0
lhumerus 47.9721 -29.5305 52.5904
lradius 108.016 -0 0
lwrist -32.4275 0 0
lhand -38.9567 26.7264 -0.123632
lfingers 7.12502 -0 0
lthumb -11.9618 56.3736 -0.119535
rclavicle -2.75946e-014 -3.18055e-015 0
rhumerus -16.6128 74.5642 -88.4165
rradius 105.951 -0 0
rwrist -48.9276 0 0
rhand 2.15306 -29.8812 -0.00724531
rfingers 7.12502 -0 0
rthumb 27.6617 -58.0189 -0.0359599
2655
root -2.10864 15.1876 -28.5026 -73.6448 -38.8606 53.9718
lfemur -49.1427 26.8641 -8.87561
ltibia 53.8833 -0 0
lfoot 12.0813 10.0601 0.0544563
ltoes -13.4533 0 0
rfemur -32.8046 -16.37 22.2724
rtibia 68.8511 -0 0
rfoot -24.719 -6.87234 0.0783369
rtoes -6.84438 0 0
lowerback 18.2896 5.06344 0.71834
upperback -0.287607 6.86541 0.470571
thorax -10.5365 3.19462 -1.69873
lowerneck -2.38097 10.214 0.667103
upperneck 5.70092 13.5724 0.381568
head 2.21104 6.77892 0.362237
lclavicle -2.75946e-014 -3.18055e-015 0
lhumerus 43.3096 -27.9885 55.8272
lradius 108.088 -0 0
lwrist -32.2143 0 0
lhand -39.1875 26.7141 -0.124263
lfingers 7.12502 -0 0
lthumb -12.1844 56.3478 -0.120051
rclavicle -2.75946e-014 -3.18055e-015 0
rhumerus -20.6497 73.5209 -91.0381
rradius 106.936 -0 0
rwrist -51.9811 0 0
rhand 2.0549 -29.2889 -0.0181855
rfingers 7.12502 -0 0
rthumb 27.5675 -57.4386 -0.0459006
2656
root -2.2338 15.1728 -28.4745 -65.8116 -22.1559 41.962
lfemur -48.1129 27.2832 -8.31434
ltibia 52.7467 -0 0
lfoot 12.8749 10.1596 0.0439265
ltoes -11.1651 0 0
rfemur -32.4416 -16.4609 21.8797
rtibia 69.1082 -0 0
rfoot -24.9253 -7.33948 0.0772347
rtoes -7.06161 0 0
lowerback 18.1031 5.14857 0.91895
upperback -0.340519 7.02298 0.463626
thorax -10.4586 3.26255 -1.84236
lowerneck -2.38153 10.2714 0.880776
upperneck 5.92212 13.6412 0.333946
head 2.30564 6.81499 0.327355
lclavicle -2.75946e-014 -3.18055e-015 0
lhumerus 38.6864 -26.2079 58.9717
lradius 108.183 -0 0
lwrist -31.8551 0 0
lhand -39.4078 26.7367 -0.121343
lfingers 7.12502 -0 0
lthumb -12.3967 56.357 -0.117131
rclavicle -2.75946e-014 -3.18055e-015 0
rhumerus -24.319 72.3298 -93.2263
rradius 107.917 -0 0
rwrist -55.0343 0 0
rhand 1.90691 -28.6761 -0.028133
rfingers 7.12502 -0 0
rthumb 27.4253 -56.8411 -0.0541125
2657
root -2.35897 15.158 -28.4465 -61.6058 -3.15288 32.3043
lfemur -47.0369 27.6994 -7.72604
ltibia 51.6505 -0 0
lfoot 13.6456 10.2626 0.0305301
ltoes -8.84915 0 0
rfemur -32.0864 -16.5688 21.4826
rtibia 69.377 -0 0
rfoot -25.1283 -7.8334 0.0741421
rtoes -7.28478 0 0
lowerback 17.9106 5.22985 1.11772
upperback -0.396639 7.17484 0.461301
thorax -10.3807 3.3283 -1.9779
lowerneck -2.38453 10.3195 1.0938
upperneck 6.14511 13.6973 0.292331
head 2.40138 6.84485 0.294464
lclavicle -2.75946e-014 -3.18055e-015 0
lhumerus 34.1681 -24.2035 61.9683
lradius 108.293 -0 0
lwrist -31.3725 0 0
lhand -39.6173 26.7893 -0.115268
lfingers 7.12502 -0 0
lthumb -12.5988 56.3963 -0.111165
rclavicle -2.75946e-014 -3.18055e-015 0
rhumerus -27.6176 71.0235 -94.9966
rradius 108.887 -0 0
rwrist -58.0671 0 0
rhand 1.719 -28.0516 -0.0361776
rfingers 7.12502 -0 0
rthumb 27.2446 -56.2344 -0.0598812
2658
root -2.48413 15.1431 -28.4184 -60.4144 17.4019 23.1439
lfemur -45.9353 28.11 -7.11849
ltibia 50.6024 -0 0
lfoot 14.3854 10.3637 0.0150512
ltoes -6.54013 0 0
rfemur -31.7409 -16.6898 21.0857
rtibia 69.6561 -0 0
rfoot -25.3287 -8.34818 0.0693029
rtoes -7.5129 0 0
lowerback 17.7148 5.30746 1.31273
upperback -0.455556 7.32076 0.463206
thorax -10.3043 3.39177 -2.10493
lowerneck -2.38971 10.3592 1.30437
upperneck 6.36745 13.742 0.256404
head 2.49715 6.86916 0.263618
lclavicle -2.75946e-014 -3.18055e-015 0
lhumerus 29.809 -22.0018 64.7732
lradius 108.412 -0 0
lwrist -30.7889 0 0
lhand -39.8162 26.8666 -0.106492
lfingers 7.12502 -0 0
lthumb -12.7904 56.4607 -0.102598
rclavicle -2.75946e-014 -3.18055e-015 0
rhumerus -30.5686 69.6346 -96.3904
rradius 109.838 -0 0
rwrist -61.0592 0 0
rhand 1.50107 -27.4243 -0.0416496
rfingers 7.12502 -0 0
rthumb 27.0351 -55.6268 -0.0627188
